<?xml version="1.0" encoding="UTF-8"?>
<!DOCTYPE svg PUBLIC "-//W3C//DTD SVG 1.1//EN" "http://www.w3.org/Graphics/SVG/1.1/DTD/svg11.dtd">
<!-- Creator: CorelDRAW 2019 (64-Bit) -->
<svg xmlns="http://www.w3.org/2000/svg" xml:space="preserve" width="1920px" height="741px" version="1.1" style="shape-rendering:geometricPrecision; text-rendering:geometricPrecision; image-rendering:optimizeQuality; fill-rule:evenodd; clip-rule:evenodd"
viewBox="0 0 1920 741.09"
 xmlns:xlink="http://www.w3.org/1999/xlink"
 xmlns:xodm="http://www.corel.com/coreldraw/odm/2003">
 <defs>
  <style type="text/css">
   <![CDATA[
    .fil1 {fill:#FF5537}
    .fil0 {fill:#FF5537;fill-rule:nonzero}
   ]]>
  </style>
 </defs>
 <g id="Layer_x0020_1">
  <metadata id="CorelCorpID_0Corel-Layer"/>
  <g id="_1841952923280">
   <g>
    <path class="fil0" d="M374.33 741.09c-1.45,0 -2.93,-0.15 -4.39,-0.43 -1.44,-0.28 -2.87,-0.7 -4.24,-1.25l-246.74 -99.05c-2.86,-1.15 -5.43,-2.84 -7.58,-4.94 -2.14,-2.11 -3.88,-4.63 -5.07,-7.47l-104.44 -244.51c-0.6,-1.41 -1.06,-2.87 -1.37,-4.35 -0.31,-1.47 -0.47,-2.98 -0.49,-4.51l-0.01 -0.27c0.01,-1.49 0.16,-2.97 0.44,-4.39 0.28,-1.44 0.7,-2.86 1.26,-4.24l99.04 -246.72c1.14,-2.86 2.84,-5.43 4.95,-7.59 2.1,-2.14 4.63,-3.88 7.46,-5.07l244.51 -104.44c1.41,-0.59 2.86,-1.05 4.34,-1.36 1.48,-0.31 3,-0.47 4.53,-0.48 0.04,-0.02 0.39,-0.02 0.42,0 1.47,0.01 2.91,0.15 4.3,0.43 1.4,0.28 2.8,0.69 4.16,1.23l246.74 99.05c2.85,1.14 5.42,2.83 7.58,4.95 2.14,2.1 3.88,4.63 5.07,7.46l104.44 244.49c1.21,2.83 1.83,5.84 1.86,8.86 0.03,3.02 -0.53,6.04 -1.69,8.9l-99.04 246.72c-1.14,2.85 -2.84,5.42 -4.95,7.58 -2.1,2.15 -4.63,3.88 -7.46,5.07l-244.49 104.44c-1.46,0.63 -2.96,1.1 -4.46,1.4 -1.58,0.33 -3.15,0.49 -4.68,0.49zm-215.36 -154.24l214.89 86.25 212.94 -90.94 86.28 -214.88 -90.94 -212.95 -214.88 -86.28 -213.01 90.97 -86.25 214.88 90.97 212.95z"/>
    <polygon class="fil1" points="347.03,465.6 490.45,465.6 490.45,532.25 250.66,532.25 250.66,471.67 345.02,367.22 251.11,269.36 251.11,208.61 490.45,208.61 490.45,275.25 350.08,275.25 437.11,366.39 "/>
   </g>
   <path class="fil1" d="M880.87 281.72l0 56.47 139.13 0 0 58.86 -139.13 0 0 61.47 142.06 0 0 58.85 -206.76 0 0 -294.5 206.76 0 0 58.85 -142.06 0zm281.33 131.62l-36.06 0 0 104.03 -64.71 0 0 -294.5 130.33 0c57.09,0 99,37.17 99,95.24 0,23.21 -6.74,45.47 -22.53,62.87 -10.48,11.54 -24.02,19.8 -38.84,24.23l69.78 112.16 -75.14 0 -61.83 -104.03zm-36.06 -131.62l0 72.77 58.93 0c22.23,0 39.73,-13.18 39.73,-36.38 0,-23.2 -17.5,-36.39 -39.73,-36.39l-58.93 0zm401.58 161.1l0 -31.99 -83.14 0 0 -58.85 147.85 0 0 115.41 -2.04 2.26c-31.57,34.91 -73.73,53.16 -120.78,53.16 -87.98,0 -154.14,-63.67 -154.14,-152.48 0,-88.87 66.21,-152.05 154.14,-152.05 49.67,0 90.4,20.85 118.88,61.44l5.02 7.15 -53.98 30.36 -4.11 -5.87c-14.86,-21.22 -39.99,-33.81 -65.81,-33.81 -52.96,0 -88.18,41.02 -88.18,92.78 0,51.69 35.17,93.2 88.18,93.2 19.62,0 42.73,-7.77 58.11,-20.71zm91.51 -72.49c0,-87.46 62.41,-152.05 150.39,-152.05 87.98,0 150.38,64.59 150.38,152.05 0,87.47 -62.4,152.06 -150.38,152.06 -87.98,0 -150.39,-64.6 -150.39,-152.06zm234.82 0c0,-51.05 -30.92,-92.78 -84.43,-92.78 -53.74,0 -84.43,41.53 -84.43,92.78 0,51.06 30.88,92.79 84.43,92.79 53.31,0 84.43,-41.94 84.43,-92.79z"/>
  </g>
 </g>
</svg>
