<?xml version="1.0" encoding="UTF-8"?>
<!DOCTYPE svg PUBLIC "-//W3C//DTD SVG 1.1//EN" "http://www.w3.org/Graphics/SVG/1.1/DTD/svg11.dtd">
<!-- Creator: CorelDRAW 2019 (64-Bit) -->
<svg xmlns="http://www.w3.org/2000/svg" xml:space="preserve" width="1069px" height="1080px" version="1.1" style="shape-rendering:geometricPrecision; text-rendering:geometricPrecision; image-rendering:optimizeQuality; fill-rule:evenodd; clip-rule:evenodd"
viewBox="0 0 1069 1079.63"
 xmlns:xlink="http://www.w3.org/1999/xlink"
 xmlns:xodm="http://www.corel.com/coreldraw/odm/2003">
 <defs>
  <style type="text/css">
   <![CDATA[
    .fil1 {fill:white}
    .fil0 {fill:white;fill-rule:nonzero}
   ]]>
  </style>
 </defs>
 <g id="Layer_x0020_1">
  <metadata id="CorelCorpID_0Corel-Layer"/>
  <g id="_1841932545968">
   <g>
    <path class="fil0" d="M538.16 717.7c-1.4,0 -2.83,-0.14 -4.25,-0.42 -1.4,-0.26 -2.78,-0.67 -4.11,-1.21l-238.95 -95.92c-2.77,-1.11 -5.26,-2.75 -7.34,-4.79 -2.08,-2.03 -3.76,-4.48 -4.91,-7.23l-101.15 -236.8c-0.58,-1.35 -1.02,-2.77 -1.32,-4.2 -0.3,-1.43 -0.46,-2.89 -0.48,-4.37l-0.01 -0.26c0.02,-1.45 0.16,-2.88 0.43,-4.26 0.27,-1.39 0.68,-2.77 1.22,-4.1l95.92 -238.94c1.1,-2.76 2.74,-5.25 4.79,-7.34 2.03,-2.08 4.48,-3.76 7.22,-4.92l236.8 -101.13c1.36,-0.58 2.77,-1.03 4.2,-1.33 1.43,-0.3 2.91,-0.45 4.39,-0.47 0.04,-0.01 0.37,-0.01 0.4,0 1.42,0.02 2.82,0.16 4.17,0.42 1.36,0.27 2.71,0.67 4.03,1.2l238.95 95.92c2.76,1.11 5.25,2.75 7.34,4.79 2.07,2.04 3.76,4.49 4.91,7.23l101.15 236.77c1.16,2.74 1.77,5.66 1.8,8.59 0.02,2.92 -0.52,5.84 -1.64,8.61l-95.92 238.93c-1.1,2.76 -2.74,5.26 -4.79,7.35 -2.03,2.08 -4.48,3.76 -7.22,4.91l-236.77 101.14c-1.42,0.61 -2.87,1.06 -4.33,1.36 -1.52,0.31 -3.05,0.47 -4.53,0.47zm-208.56 -149.37l208.1 83.53 206.23 -88.07 83.55 -208.1 -88.06 -206.23 -208.11 -83.56 -206.28 88.1 -83.53 208.1 88.1 206.23z"/>
    <polygon class="fil1" points="511.72,450.91 650.62,450.91 650.62,515.45 418.39,515.45 418.39,456.78 509.77,355.63 418.83,260.86 418.83,202.03 650.62,202.03 650.62,266.56 514.68,266.56 598.96,354.83 "/>
   </g>
   <path class="fil1" d="M62.66 846.16l0 54.68 134.74 0 0 57 -134.74 0 0 59.53 137.58 0 0 57 -200.24 0 0 -285.21 200.24 0 0 57 -137.58 0zm272.45 127.46l-34.92 0 0 100.75 -62.66 0 0 -285.21 126.21 0c55.29,0 95.87,35.99 95.87,92.23 0,22.48 -6.52,44.04 -21.81,60.89 -10.15,11.18 -23.27,19.17 -37.62,23.47l67.58 108.62 -72.77 0 -59.88 -100.75zm-34.92 -127.46l0 70.46 57.08 0c21.52,0 38.47,-12.76 38.47,-35.23 0,-22.47 -16.95,-35.23 -38.47,-35.23l-57.08 0zm388.91 156.01l0 -30.98 -80.52 0 0 -56.99 143.19 0 0 111.76 -1.98 2.19c-30.57,33.81 -71.4,51.48 -116.96,51.48 -85.21,0 -149.28,-61.66 -149.28,-147.66 0,-86.07 64.12,-147.26 149.28,-147.26 48.09,0 87.54,20.2 115.12,59.5l4.86 6.93 -52.27 29.4 -3.98 -5.68c-14.39,-20.56 -38.73,-32.74 -63.73,-32.74 -51.3,0 -85.4,39.72 -85.4,89.85 0,50.06 34.06,90.26 85.4,90.26 18.99,0 41.38,-7.53 56.27,-20.06zm88.63 -70.2c0,-84.7 60.43,-147.26 145.63,-147.26 85.21,0 145.64,62.55 145.64,147.26 0,84.7 -60.43,147.26 -145.64,147.26 -85.2,0 -145.63,-62.56 -145.63,-147.26zm227.4 0c0,-49.44 -29.95,-89.85 -81.77,-89.85 -52.04,0 -81.76,40.22 -81.76,89.85 0,49.44 29.91,89.85 81.76,89.85 51.63,0 81.77,-40.6 81.77,-89.85z"/>
  </g>
 </g>
</svg>
