<?xml version="1.0" encoding="UTF-8"?>
<!DOCTYPE svg PUBLIC "-//W3C//DTD SVG 1.1//EN" "http://www.w3.org/Graphics/SVG/1.1/DTD/svg11.dtd">
<!-- Creator: CorelDRAW 2019 (64-Bit) -->
<svg xmlns="http://www.w3.org/2000/svg" xml:space="preserve" width="1920px" height="530px" version="1.1" style="shape-rendering:geometricPrecision; text-rendering:geometricPrecision; image-rendering:optimizeQuality; fill-rule:evenodd; clip-rule:evenodd"
viewBox="0 0 1920 529.69"
 xmlns:xlink="http://www.w3.org/1999/xlink"
 xmlns:xodm="http://www.corel.com/coreldraw/odm/2003">
 <defs>
  <style type="text/css">
   <![CDATA[
    .fil0 {fill:white}
   ]]>
  </style>
 </defs>
 <g id="Layer_x0020_1">
  <metadata id="CorelCorpID_0Corel-Layer"/>
  <path class="fil0" d="M112.55 110.35l0 98.22 242 0 0 102.37 -242 0 0 106.93 247.09 0 0 102.37 -359.64 0 0 -512.26 359.64 0 0 102.37 -247.09 0zm489.33 228.94l-62.72 0 0 180.95 -112.55 0 0 -512.26 226.69 0c99.3,0 172.2,64.65 172.2,165.66 0,40.38 -11.73,79.1 -39.19,109.35 -18.23,20.08 -41.78,34.44 -67.56,42.16l121.39 195.09 -130.71 0 -107.55 -180.95zm-62.72 -228.94l0 126.56 102.52 0c38.65,0 69.09,-22.92 69.09,-63.27 0,-40.36 -30.44,-63.29 -69.09,-63.29l-102.52 0zm698.52 280.21l0 -55.64 -144.63 0 0 -102.37 257.17 0 0 200.75 -3.55 3.93c-54.91,60.72 -128.24,92.46 -210.07,92.46 -153.04,0 -268.11,-110.74 -268.11,-265.21 0,-154.59 115.17,-264.48 268.11,-264.48 86.38,0 157.24,36.27 206.77,106.86l8.73 12.44 -93.89 52.81 -7.15 -10.21c-25.84,-36.92 -69.55,-58.8 -114.46,-58.8 -92.13,0 -153.38,71.35 -153.38,161.38 0,89.9 61.17,162.11 153.38,162.11 34.12,0 74.33,-13.53 101.08,-36.03zm159.17 -126.08c0,-152.13 108.54,-264.48 261.57,-264.48 153.05,0 261.58,112.34 261.58,264.48 0,152.13 -108.54,264.48 -261.58,264.48 -153.02,0 -261.57,-112.35 -261.57,-264.48zm408.44 0c0,-88.8 -53.79,-161.38 -146.87,-161.38 -93.47,0 -146.84,72.23 -146.84,161.38 0,88.8 53.71,161.38 146.84,161.38 92.74,0 146.87,-72.93 146.87,-161.38z"/>
 </g>
</svg>
