<?xml version="1.0" encoding="utf-8"?>
<!DOCTYPE svg PUBLIC "-//W3C//DTD SVG 20010904//EN" "http://www.w3.org/TR/2001/REC-SVG-20010904/DTD/svg10.dtd">
<svg version="1.0" xmlns="http://www.w3.org/2000/svg" width="295px" height="295px" viewBox="0 0 295 295" preserveAspectRatio="xMidYMid meet">
 <g fill="#000000">
  <path d="M108 254 c-23.4 -9.5 -43 -17.7 -43.7 -18.3 -0.6 -0.7 -9.4 -20.3 -19.4 -43.6 l-18.1 -42.5 16.8 -42.4 c9.3 -23.3 17.8 -43.3 18.9 -44.4 2.5 -2.4 83 -37 86.2 -37 2.6 0 85.3 33.1 85.3 34.2 0 0.4 -3.3 4.1 -7.2 8.3 l-7.3 7.7 -34.5 -14 c-18.9 -7.7 -35.1 -14 -36 -14 -0.8 0 -17.1 6.6 -36.2 14.7 l-34.7 14.8 -14.5 35.9 -14.4 35.8 15 35.2 c8.3 19.3 15.2 35.3 15.4 35.5 0.2 0.3 16.4 6.9 35.9 14.7 l35.4 14.2 32.8 -14 c18 -7.7 33.8 -14.4 35.1 -14.9 2 -0.8 3.3 0.1 10.4 6.9 l8.1 7.8 -41.9 17.8 c-23.1 9.9 -42.6 18.1 -43.4 18.3 -0.8 0.2 -20.6 -7.3 -44 -16.7z"/>
  <path d="M222 196 c0 -6.6 0.8 -5.9 -9 -7.9 -2.5 -0.6 -6.2 -1.7 -8.2 -2.5 l-3.6 -1.5 2.4 -7.7 c1.3 -4.2 2.5 -7.8 2.6 -8 0.2 -0.2 3.5 0.8 7.3 2.2 8.6 3.2 17.7 3.7 20.2 1.1 2.5 -2.5 2.2 -8.1 -0.7 -11.2 -1.2 -1.3 -6.3 -4.5 -11.1 -7 -4.8 -2.5 -10.2 -5.7 -12 -7.2 -4.4 -3.7 -6.9 -9.6 -6.9 -16.6 0 -9.8 4.9 -16.6 14.6 -20.3 l4.6 -1.8 -0.5 -6.3 -0.5 -6.3 7.4 0 7.4 0 0 6.4 0 6.4 3.8 0.6 c2 0.4 5.8 1.4 8.4 2.2 l4.6 1.5 -2.5 7.5 c-2.3 6.8 -2.8 7.5 -4.7 7 -14.7 -4.3 -17.7 -4.5 -20.6 -1.6 -4.1 4.1 -2.1 8.9 5.3 12.6 22.6 11.5 30.2 24.6 22.7 39.4 -2.4 4.7 -8.3 9.7 -13.2 11.2 l-3.8 1.1 0 6.4 0 6.3 -7 0 -7 0 0 -6z"/>
  <path d="M110 191.6 l0 -9.3 15.5 -17.1 c8.5 -9.4 15.5 -17.6 15.5 -18.3 0 -0.6 -6.8 -8.1 -15 -16.6 l-15 -15.5 0 -9.9 0 -9.9 39 0 39 0 0 10.5 0 10.5 -23.2 0.2 -23.2 0.3 14.2 14.8 c7.9 8.2 14.2 15.2 14 15.7 -0.2 0.5 -6.8 8 -14.7 16.7 l-14.4 15.8 23.7 0.3 23.6 0.2 0 10.5 0 10.5 -39.5 0 -39.5 0 0 -9.4z"/>
 </g>
</svg>